<?xml version="1.0" encoding="UTF-8"?>
<svg xmlns="http://www.w3.org/2000/svg" xmlns:xlink="http://www.w3.org/1999/xlink" width="254.611pt" height="261.395pt" viewBox="0 0 254.611 261.395">
<defs>
<clipPath id="clip-0">
<path clip-rule="nonzero" d="M 110 112 L 254.121094 112 L 254.121094 211 L 110 211 Z M 110 112 "/>
</clipPath>
<clipPath id="clip-1">
<path clip-rule="nonzero" d="M 120 9 L 254.121094 9 L 254.121094 190 L 120 190 Z M 120 9 "/>
</clipPath>
<clipPath id="clip-2">
<path clip-rule="nonzero" d="M 0.101562 9 L 134 9 L 134 191 L 0.101562 191 Z M 0.101562 9 "/>
</clipPath>
<clipPath id="clip-3">
<path clip-rule="nonzero" d="M 0.101562 112 L 145 112 L 145 211 L 0.101562 211 Z M 0.101562 112 "/>
</clipPath>
<clipPath id="clip-4">
<path clip-rule="nonzero" d="M 27 176 L 228 176 L 228 260.792969 L 27 260.792969 Z M 27 176 "/>
</clipPath>
</defs>
<g clip-path="url(#clip-0)">
<path fill="none" stroke-width="1.19553" stroke-linecap="butt" stroke-linejoin="miter" stroke="rgb(0%, 0%, 0%)" stroke-opacity="1" stroke-miterlimit="10" d="M 0.00079509 -0.000283986 L 111.551352 -64.402906 " transform="matrix(0.997691, 0, 0, -0.997691, 127.229675, 129.105185)"/>
</g>
<g clip-path="url(#clip-1)">
<path fill="none" stroke-width="0.3985" stroke-linecap="butt" stroke-linejoin="miter" stroke="rgb(0%, 62.745667%, 86.274719%)" stroke-opacity="1" stroke-miterlimit="10" d="M 93.736778 -55.111921 C 93.736778 -55.111921 99.597968 -49.626598 101.673073 -47.359644 C 103.744262 -45.088776 106.876494 -41.24396 108.673613 -38.753835 C 110.474647 -36.259794 113.14096 -32.086094 114.640517 -29.40412 C 116.140073 -26.722145 118.309144 -22.266544 119.495477 -19.427958 C 120.681811 -16.593287 122.326233 -11.91843 123.175851 -8.9663 C 124.029384 -6.014171 125.125666 -1.174871 125.630739 1.855564 C 126.139726 4.885999 126.676121 9.815351 126.832733 12.881024 C 126.989345 15.950612 126.958022 20.90737 126.758342 23.976958 C 126.562578 27.042631 125.963538 31.964152 125.415398 34.990672 C 124.867257 38.013277 123.708331 42.833 122.81956 45.773384 C 121.926873 48.717682 120.219806 53.369048 119.002151 56.191973 C 117.78058 59.010982 115.556695 63.439177 114.017985 66.101575 C 112.483191 68.763972 109.754233 72.90635 107.925792 75.372984 C 106.093436 77.839617 102.91422 81.64528 100.811709 83.888742 C 98.709197 86.132203 95.118875 89.542422 92.769701 91.527475 C 90.424442 93.512527 86.466082 96.495979 83.909397 98.19913 C 81.348797 99.902282 77.077214 102.408068 74.340426 103.805827 C 71.603638 105.207501 67.065815 107.2043 64.188076 108.281005 C 61.310337 109.35771 56.572835 110.825944 53.589383 111.565934 C 50.609847 112.305924 45.73531 113.218187 42.689213 113.609716 C 39.639202 114.001245 34.694189 114.349706 31.620685 114.392774 C 28.547182 114.431927 23.594339 114.212671 20.540412 113.903363 C 17.48257 113.59014 12.58454 112.803166 9.585428 112.141482 C 6.582399 111.479798 -1.095486 109.138454 -1.095486 109.138454 " transform="matrix(0.997691, 0, 0, -0.997691, 127.229675, 129.105185)"/>
</g>
<path fill="none" stroke-width="1.19553" stroke-linecap="butt" stroke-linejoin="miter" stroke="rgb(0%, 0%, 0%)" stroke-opacity="1" stroke-miterlimit="10" d="M 0.00079509 -0.000283986 L 0.00079509 128.808876 " transform="matrix(0.997691, 0, 0, -0.997691, 127.229675, 129.105185)"/>
<g clip-path="url(#clip-2)">
<path fill="none" stroke-width="0.3985" stroke-linecap="butt" stroke-linejoin="miter" stroke="rgb(0%, 62.745667%, 86.274719%)" stroke-opacity="1" stroke-miterlimit="10" d="M 0.858244 108.731263 C 0.858244 108.731263 -6.819642 111.068692 -9.82267 111.730376 C -12.825698 112.388145 -17.719812 113.179034 -20.777654 113.492257 C -23.835497 113.805481 -28.784425 114.024737 -31.854013 113.985584 C -34.927516 113.942516 -39.872529 113.594055 -42.922541 113.19861 C -45.968637 112.807081 -50.839259 111.894818 -53.822711 111.158744 C -56.806163 110.418754 -61.543665 108.946604 -64.421404 107.873815 C -67.303058 106.79711 -71.836965 104.800311 -74.573753 103.398637 C -77.310542 102.000878 -81.586039 99.495092 -84.142725 97.788025 C -86.69941 96.084873 -90.661684 93.101422 -93.010859 91.116369 C -95.356118 89.131316 -98.950355 85.717183 -101.052867 83.477636 C -103.151463 81.234174 -106.330679 77.428512 -108.163035 74.961878 C -109.995391 72.495245 -112.716519 68.352867 -114.255228 65.690469 C -115.790022 63.031986 -118.013907 58.599877 -119.235478 55.776952 C -120.457049 52.957943 -122.168031 48.302662 -123.056802 45.362278 C -123.945573 42.421894 -125.104499 37.602171 -125.65264 34.579566 C -126.196866 31.553046 -126.79982 26.631526 -126.995585 23.565853 C -127.191349 20.50018 -127.226587 15.547337 -127.069975 12.477749 C -126.913364 9.40816 -126.376969 4.478809 -125.867981 1.448374 C -125.362909 -1.582062 -124.266627 -6.417446 -123.413094 -9.369575 C -122.563475 -12.32562 -120.915138 -17.000478 -119.73272 -19.835148 C -118.546387 -22.669819 -116.377316 -27.129336 -114.877759 -29.81131 C -113.374287 -32.493284 -110.711889 -36.6709 -108.910856 -39.16494 C -107.109822 -41.655065 -103.981504 -45.499881 -101.910315 -47.77075 C -99.835211 -50.037703 -93.970105 -55.519111 -93.970105 -55.519111 " transform="matrix(0.997691, 0, 0, -0.997691, 127.229675, 129.105185)"/>
</g>
<g clip-path="url(#clip-3)">
<path fill="none" stroke-width="1.19553" stroke-linecap="butt" stroke-linejoin="miter" stroke="rgb(0%, 0%, 0%)" stroke-opacity="1" stroke-miterlimit="10" d="M 0.00079509 -0.000283986 L -111.549762 -64.402906 " transform="matrix(0.997691, 0, 0, -0.997691, 127.229675, 129.105185)"/>
</g>
<g clip-path="url(#clip-4)">
<path fill="none" stroke-width="0.3985" stroke-linecap="butt" stroke-linejoin="miter" stroke="rgb(0%, 62.745667%, 86.274719%)" stroke-opacity="1" stroke-miterlimit="10" d="M -94.596552 -53.620195 C -94.596552 -53.620195 -92.779857 -61.442946 -91.848017 -64.371584 C -90.920093 -67.300222 -89.154297 -71.935926 -87.897489 -74.739275 C -86.64068 -77.542623 -84.358066 -81.939495 -82.784119 -84.578401 C -81.214087 -87.221222 -78.438145 -91.328363 -76.574467 -93.771504 C -74.710788 -96.214646 -71.484589 -99.977241 -69.35467 -102.193295 C -67.220837 -104.405435 -63.579616 -107.772585 -61.20695 -109.726315 C -58.838199 -111.683961 -54.840686 -114.612598 -52.26051 -116.280512 C -49.680333 -117.952342 -45.369597 -120.403314 -42.617148 -121.765835 C -39.860783 -123.128356 -35.299469 -125.070341 -32.406069 -126.107893 C -29.512669 -127.145445 -24.759505 -128.551035 -21.768223 -129.251872 C -18.776941 -129.952709 -13.890658 -130.798412 -10.83673 -131.150788 C -7.786719 -131.507079 -2.837791 -131.792896 0.235713 -131.792896 C 3.309216 -131.792896 8.258144 -131.503164 11.312071 -131.150788 C 14.365998 -130.798412 19.248366 -129.952709 22.243563 -129.251872 C 25.234846 -128.551035 29.988009 -127.145445 32.881409 -126.107893 C 35.770894 -125.066426 40.336123 -123.128356 43.088573 -121.765835 C 45.841023 -120.403314 50.151758 -117.952342 52.728019 -116.284428 C 55.308196 -114.612598 59.309624 -111.683961 61.678375 -109.730231 C 64.051041 -107.7765 67.692262 -104.40935 69.82218 -102.193295 C 71.956014 -99.981156 75.178298 -96.218561 77.041977 -93.771504 C 78.909571 -91.328363 81.685512 -87.221222 83.255544 -84.578401 C 84.829491 -81.939495 87.116021 -77.542623 88.372829 -74.739275 C 89.629637 -71.935926 91.395434 -67.300222 92.323358 -64.371584 C 93.251282 -61.442946 95.064061 -53.62411 95.064061 -53.62411 " transform="matrix(0.997691, 0, 0, -0.997691, 127.229675, 129.105185)"/>
</g>
<path fill-rule="nonzero" fill="rgb(100%, 100%, 100%)" fill-opacity="1" stroke-width="0.79701" stroke-linecap="butt" stroke-linejoin="miter" stroke="rgb(0%, 0%, 0%)" stroke-opacity="1" stroke-miterlimit="10" d="M 5.670137 -0.000283986 C 5.670137 3.131949 3.133028 5.669057 0.00079509 5.669057 C -3.131438 5.669057 -5.668546 3.131949 -5.668546 -0.000283986 C -5.668546 -3.132517 -3.131438 -5.669625 0.00079509 -5.669625 C 3.133028 -5.669625 5.670137 -3.132517 5.670137 -0.000283986 Z M 5.670137 -0.000283986 " transform="matrix(0.997691, 0, 0, -0.997691, 127.229675, 129.105185)"/>
<path fill-rule="nonzero" fill="rgb(0%, 0%, 0%)" fill-opacity="1" d="M 129.492188 129.105469 C 129.492188 127.855469 128.480469 126.84375 127.230469 126.84375 C 125.980469 126.84375 124.96875 127.855469 124.96875 129.105469 C 124.96875 130.355469 125.980469 131.367188 127.230469 131.367188 C 128.480469 131.367188 129.492188 130.355469 129.492188 129.105469 Z M 129.492188 129.105469 "/>
</svg>
